<svg version="1.1" id="Layer_1" xmlns="http://www.w3.org/2000/svg" xmlns:xlink="http://www.w3.org/1999/xlink" x="0px" y="0px"
	 width="100%" viewBox="0 0 1024 1024" enable-background="new 0 0 1024 1024" xml:space="preserve">
<path fill="#0B0B0B" opacity="1.000000" stroke="none" 
	d="
M935.000000,1025.000000 
	C623.333313,1025.000000 312.166656,1025.000000 1.000000,1025.000000 
	C1.000000,683.666687 1.000000,342.333344 1.000000,1.000000 
	C342.333344,1.000000 683.666687,1.000000 1025.000000,1.000000 
	C1025.000000,342.333344 1025.000000,683.666687 1025.000000,1025.000000 
	C995.166687,1025.000000 965.333313,1025.000000 935.000000,1025.000000 
M664.541687,517.762329 
	C664.011475,517.180115 663.481262,516.597961 662.347839,515.688110 
	C650.216858,494.827972 638.106934,473.955505 625.903198,453.138062 
	C625.163330,451.875916 623.715759,450.215881 622.532593,450.161865 
	C616.113159,449.868805 609.673340,450.022766 603.261230,450.022766 
	C603.261230,488.329193 603.261230,526.080322 603.261230,563.945190 
	C610.246216,563.945190 616.985840,563.945190 624.244507,563.945190 
	C624.244507,539.944641 624.244507,516.151672 624.244507,491.220886 
	C638.579590,515.109497 652.259521,537.929871 665.986023,560.722229 
	C666.803833,562.080261 667.994141,563.213989 669.306824,565.155579 
	C674.634399,565.434753 679.960205,565.790649 685.291382,565.917786 
	C686.178711,565.938904 687.089844,564.964111 688.702087,563.873840 
	C688.775391,563.050476 688.912476,562.227173 688.912842,561.403809 
	C688.928101,524.956360 688.932739,488.508942 688.923462,452.061493 
	C688.923279,451.448090 688.736450,450.834778 688.575745,449.846863 
	C684.596741,449.846863 680.794922,449.846863 676.793579,449.092773 
	C673.377686,447.938019 669.881714,446.089844 667.115417,451.124878 
	C667.063843,473.417267 667.012207,495.709686 666.086060,518.129822 
	C665.564270,518.391968 665.042419,518.654114 664.250610,518.703064 
	C664.250610,518.703064 664.165283,518.369995 664.541687,517.762329 
M415.279266,450.186249 
	C414.854431,451.167480 414.063812,452.147003 414.059235,453.130188 
	C413.982361,469.586426 413.966461,486.043335 414.082489,502.499084 
	C414.090729,503.667786 415.229034,504.828552 416.002014,506.915619 
	C415.948517,511.946075 415.895020,516.976562 415.074371,522.216797 
	C414.721527,522.907654 414.064880,523.596802 414.061005,524.289612 
	C413.994659,536.198669 413.965118,548.108704 414.085022,560.016907 
	C414.095093,561.014709 415.229645,562.001221 416.065063,563.580505 
	C416.380310,563.839844 416.695557,564.099121 417.281433,565.082458 
	C418.338409,565.386536 419.394714,565.953064 420.452454,565.955811 
	C440.740540,566.008301 461.028931,566.022949 481.316650,565.924866 
	C482.543457,565.918945 483.765411,564.907837 485.737427,563.843079 
	C485.737427,556.941223 485.737427,550.039429 485.737427,542.789185 
	C469.929626,542.789185 454.537231,542.789185 439.262756,542.789185 
	C439.262756,534.018311 439.262756,525.611572 439.262756,516.879700 
	C452.145416,516.879700 464.748169,516.879700 477.099396,516.879700 
	C477.099396,509.822174 477.099396,503.102966 477.099396,496.152649 
	C464.285309,496.152649 451.859833,496.152649 439.237061,496.152649 
	C439.237061,487.689606 439.237061,479.476715 439.237061,470.884094 
	C454.554077,470.884094 469.617493,470.884094 484.954834,470.884094 
	C484.954834,463.715240 484.954834,456.923187 484.821167,449.317200 
	C483.852539,448.880127 482.885223,448.065002 481.915070,448.061584 
	C461.041016,447.987640 440.166504,447.973206 419.292908,448.092560 
	C418.208282,448.098724 417.131104,449.395416 416.010101,450.019226 
	C416.010101,450.019226 416.087463,450.048096 415.279266,450.186249 
M261.911469,516.990173 
	C274.136139,516.990173 286.360809,516.990173 298.586243,516.990173 
	C298.586243,509.768921 298.586243,503.075867 298.586243,495.958679 
	C285.836823,495.958679 273.416046,495.958679 260.815552,495.558319 
	C260.652100,495.301727 260.427643,495.120728 259.989075,494.087341 
	C260.042542,487.056030 260.095978,480.024719 260.940552,472.965790 
	C261.676788,472.363586 262.413025,471.761383 263.927399,471.000824 
	C271.287292,471.052826 278.647156,471.104828 286.141327,471.816681 
	C287.425171,471.597961 288.709045,471.379242 290.888275,471.002411 
	C296.168182,471.002411 301.448120,471.002411 306.759094,471.002411 
	C306.759094,463.848846 306.759094,457.091522 306.759094,450.248413 
	C283.467316,450.248413 260.407074,450.248413 237.365448,450.248413 
	C237.365448,488.341827 237.365448,526.198853 237.365448,563.929382 
	C260.991516,563.929382 284.267456,563.929382 308.411041,563.929382 
	C307.928772,556.760254 307.461029,549.807251 306.785706,542.084778 
	C305.108276,541.723511 303.432617,541.058899 301.753113,541.048889 
	C287.885712,540.966125 274.017578,541.004700 259.990601,540.080505 
	C260.042023,532.715393 260.093445,525.350220 260.509125,517.801025 
	C260.736542,517.634460 260.894897,517.417480 261.911469,516.990173 
M559.409729,559.136475 
	C560.959290,560.814819 562.404175,563.808655 564.076599,563.941650 
	C570.976868,564.490356 577.945984,564.171448 585.663696,564.171448 
	C577.861694,548.987732 570.369812,534.407654 562.905823,519.881836 
	C563.354919,519.490723 563.568604,519.233093 563.840698,519.077881 
	C578.222534,510.874146 585.193176,497.032715 582.859131,481.294067 
	C580.587585,465.977600 569.556030,453.724457 553.495178,451.000427 
	C543.766602,449.350342 533.634644,450.004547 523.680359,449.785004 
	C516.776184,449.632751 509.865936,449.755707 503.199280,449.755707 
	C503.199280,488.262207 503.199280,526.132202 503.199280,563.833496 
	C510.933197,563.833496 518.338013,563.833496 525.981689,563.833496 
	C525.981689,549.953491 525.981689,536.368408 525.981689,522.538269 
	C529.687012,522.538269 533.172180,522.764587 536.613220,522.471863 
	C539.781189,522.202332 541.305603,523.553894 542.645996,526.261414 
	C547.989502,537.055176 553.555847,547.738586 559.409729,559.136475 
M732.279724,541.277588 
	C743.424377,541.189636 754.570251,541.008850 765.711853,541.155029 
	C766.845093,541.169861 768.521057,542.951477 768.976379,544.252380 
	C771.287964,550.857117 773.279968,557.573792 775.286316,563.941528 
	C783.520935,563.941528 791.105835,563.941528 798.966492,563.941528 
	C785.957031,526.662903 773.066528,489.664703 760.049866,452.710907 
	C759.650513,451.577087 757.978088,450.200836 756.834167,450.138824 
	C751.700867,449.860809 746.544067,450.017761 741.449707,450.017761 
	C728.191528,488.045532 715.029480,525.797546 701.749268,563.888428 
	C709.723511,563.888428 717.260559,563.888428 724.709839,563.888428 
	C727.203308,556.443237 729.605225,549.271240 732.279724,541.277588 
M325.549744,470.993744 
	C333.160278,470.993744 340.770844,470.993744 348.701355,470.993744 
	C348.701355,502.244995 348.701355,532.977539 348.701355,563.843018 
	C356.452240,563.843018 363.874329,563.843018 371.572723,563.843018 
	C371.572723,532.831177 371.572723,502.068726 371.572723,470.930847 
	C381.770325,470.930847 391.696686,470.930847 401.745026,470.930847 
	C401.745026,463.812378 401.745026,457.073639 401.745026,450.250977 
	C373.658447,450.250977 345.798065,450.250977 318.054504,450.250977 
	C318.054504,457.289215 318.054504,463.915131 318.054504,470.992676 
	C320.322021,470.992676 322.442230,470.992676 325.549744,470.993744 
z"/>
<path fill="#FDFDFD" opacity="1.000000" stroke="none" 
	d="
M666.960571,518.002075 
	C667.012207,495.709686 667.063843,473.417267 667.538757,450.589844 
	C670.972412,449.985535 673.982788,449.916199 676.993103,449.846863 
	C680.794922,449.846863 684.596741,449.846863 688.575745,449.846863 
	C688.736450,450.834778 688.923279,451.448090 688.923462,452.061493 
	C688.932739,488.508942 688.928101,524.956360 688.912842,561.403809 
	C688.912476,562.227173 688.775391,563.050476 687.886658,564.068604 
	C681.051208,564.326233 675.031128,564.389160 669.011108,564.452148 
	C667.994141,563.213989 666.803833,562.080261 665.986023,560.722229 
	C652.259521,537.929871 638.579590,515.109497 624.244507,491.220886 
	C624.244507,516.151672 624.244507,539.944641 624.244507,563.945190 
	C616.985840,563.945190 610.246216,563.945190 603.261230,563.945190 
	C603.261230,526.080322 603.261230,488.329193 603.261230,450.022766 
	C609.673340,450.022766 616.113159,449.868805 622.532593,450.161865 
	C623.715759,450.215881 625.163330,451.875916 625.903198,453.138062 
	C638.106934,473.955505 650.216858,494.827972 662.684204,516.120483 
	C663.402161,517.158630 663.783752,517.764282 664.165283,518.369995 
	C664.165283,518.369995 664.250610,518.703064 664.541260,519.099792 
	C665.391113,520.579163 665.950256,521.661743 666.509338,522.744385 
	C666.728882,522.689270 666.948364,522.634155 667.167908,522.579041 
	C667.098816,521.053406 667.029724,519.527710 666.960571,518.002075 
z"/>
<path fill="#FEFEFE" opacity="1.000000" stroke="none" 
	d="
M559.224731,558.799683 
	C553.555847,547.738586 547.989502,537.055176 542.645996,526.261414 
	C541.305603,523.553894 539.781189,522.202332 536.613220,522.471863 
	C533.172180,522.764587 529.687012,522.538269 525.981689,522.538269 
	C525.981689,536.368408 525.981689,549.953491 525.981689,563.833496 
	C518.338013,563.833496 510.933197,563.833496 503.199280,563.833496 
	C503.199280,526.132202 503.199280,488.262207 503.199280,449.755707 
	C509.865936,449.755707 516.776184,449.632751 523.680359,449.785004 
	C533.634644,450.004547 543.766602,449.350342 553.495178,451.000427 
	C569.556030,453.724457 580.587585,465.977600 582.859131,481.294067 
	C585.193176,497.032715 578.222534,510.874146 563.840698,519.077881 
	C563.568604,519.233093 563.354919,519.490723 562.905823,519.881836 
	C570.369812,534.407654 577.861694,548.987732 585.663696,564.171448 
	C577.945984,564.171448 570.976868,564.490356 564.076599,563.941650 
	C562.404175,563.808655 560.959290,560.814819 559.224731,558.799683 
M527.843750,502.903748 
	C533.007446,502.910004 538.176025,503.063629 543.333679,502.890259 
	C552.541626,502.580658 558.441467,497.252075 559.514526,488.542450 
	C560.516907,480.406097 555.476685,472.588745 546.851868,470.998474 
	C539.958984,469.727570 532.760193,470.115387 525.321106,469.748413 
	C525.321106,480.838837 525.298340,491.124512 525.388611,501.409180 
	C525.393066,501.920471 526.380493,502.423126 527.843750,502.903748 
z"/>
<path fill="#FEFEFE" opacity="1.000000" stroke="none" 
	d="
M260.149475,472.993408 
	C260.095978,480.024719 260.042542,487.056030 260.023895,494.841675 
	C260.370911,495.716888 260.683105,495.837769 260.995270,495.958679 
	C273.416046,495.958679 285.836823,495.958679 298.586243,495.958679 
	C298.586243,503.075867 298.586243,509.768921 298.586243,516.990173 
	C286.360809,516.990173 274.136139,516.990173 261.178650,517.028931 
	C260.345520,517.373474 260.245178,517.679260 260.144897,517.985107 
	C260.093445,525.350220 260.042023,532.715393 260.003448,540.982056 
	C260.772156,542.257751 261.527679,542.957520 262.283844,542.958191 
	C277.186951,542.972168 292.090149,542.904907 306.993286,542.854187 
	C307.461029,549.807251 307.928772,556.760254 308.411041,563.929382 
	C284.267456,563.929382 260.991516,563.929382 237.365448,563.929382 
	C237.365448,526.198853 237.365448,488.341827 237.365448,450.248413 
	C260.407074,450.248413 283.467316,450.248413 306.759094,450.248413 
	C306.759094,457.091522 306.759094,463.848846 306.759094,471.002411 
	C301.448120,471.002411 296.168182,471.002411 290.046143,471.007812 
	C288.138336,471.061096 287.072693,471.108978 286.007050,471.156860 
	C278.647156,471.104828 271.287292,471.052826 263.205963,471.004822 
	C261.706177,471.670349 260.927826,472.331879 260.149475,472.993408 
z"/>
<path fill="#FEFEFE" opacity="1.000000" stroke="none" 
	d="
M484.954834,450.131165 
	C484.954834,456.923187 484.954834,463.715240 484.954834,470.884094 
	C469.617493,470.884094 454.554077,470.884094 439.237061,470.884094 
	C439.237061,479.476715 439.237061,487.689606 439.237061,496.152649 
	C451.859833,496.152649 464.285309,496.152649 477.099396,496.152649 
	C477.099396,503.102966 477.099396,509.822174 477.099396,516.879700 
	C464.748169,516.879700 452.145416,516.879700 439.262756,516.879700 
	C439.262756,525.611572 439.262756,534.018311 439.262756,542.789185 
	C454.537231,542.789185 469.929626,542.789185 485.737427,542.789185 
	C485.737427,550.039429 485.737427,556.941223 484.905548,564.001221 
	C461.719391,564.225708 439.365112,564.292053 417.010834,564.358459 
	C416.695557,564.099121 416.380310,563.839844 416.025543,562.823425 
	C415.937866,548.713257 415.889709,535.360107 415.841553,522.007019 
	C415.895020,516.976562 415.948517,511.946075 415.993896,505.990967 
	C416.019684,486.726898 416.053558,468.387512 416.087463,450.048096 
	C416.087463,450.048096 416.010101,450.019226 416.493103,450.003082 
	C439.635651,450.035034 462.295258,450.083099 484.954834,450.131165 
z"/>
<path fill="#FDFDFD" opacity="1.000000" stroke="none" 
	d="
M732.143433,541.688477 
	C729.605225,549.271240 727.203308,556.443237 724.709839,563.888428 
	C717.260559,563.888428 709.723511,563.888428 701.749268,563.888428 
	C715.029480,525.797546 728.191528,488.045532 741.449707,450.017761 
	C746.544067,450.017761 751.700867,449.860809 756.834167,450.138824 
	C757.978088,450.200836 759.650513,451.577087 760.049866,452.710907 
	C773.066528,489.664703 785.957031,526.662903 798.966492,563.941528 
	C791.105835,563.941528 783.520935,563.941528 775.286316,563.941528 
	C773.279968,557.573792 771.287964,550.857117 768.976379,544.252380 
	C768.521057,542.951477 766.845093,541.169861 765.711853,541.155029 
	C754.570251,541.008850 743.424377,541.189636 732.143433,541.688477 
M760.867004,516.806335 
	C757.417297,505.560150 753.967590,494.313934 750.289001,482.321594 
	C746.143494,495.882141 742.214600,508.733978 738.247681,521.710083 
	C746.208557,521.710083 754.055664,521.710083 762.216858,521.710083 
	C761.744324,520.116760 761.375488,518.872986 760.867004,516.806335 
z"/>
<path fill="#FEFEFE" opacity="1.000000" stroke="none" 
	d="
M325.056091,470.993225 
	C322.442230,470.992676 320.322021,470.992676 318.054504,470.992676 
	C318.054504,463.915131 318.054504,457.289215 318.054504,450.250977 
	C345.798065,450.250977 373.658447,450.250977 401.745026,450.250977 
	C401.745026,457.073639 401.745026,463.812378 401.745026,470.930847 
	C391.696686,470.930847 381.770325,470.930847 371.572723,470.930847 
	C371.572723,502.068726 371.572723,532.831177 371.572723,563.843018 
	C363.874329,563.843018 356.452240,563.843018 348.701355,563.843018 
	C348.701355,532.977539 348.701355,502.244995 348.701355,470.993744 
	C340.770844,470.993744 333.160278,470.993744 325.056091,470.993225 
z"/>
<path fill="#020202" opacity="1.000000" stroke="none" 
	d="
M484.888000,449.724182 
	C462.295258,450.083099 439.635651,450.035034 416.513245,450.039124 
	C417.131104,449.395416 418.208282,448.098724 419.292908,448.092560 
	C440.166504,447.973206 461.041016,447.987640 481.915070,448.061584 
	C482.885223,448.065002 483.852539,448.880127 484.888000,449.724182 
z"/>
<path fill="#020202" opacity="1.000000" stroke="none" 
	d="
M417.146118,564.720459 
	C439.365112,564.292053 461.719391,564.225708 484.531616,564.261902 
	C483.765411,564.907837 482.543457,565.918945 481.316650,565.924866 
	C461.028931,566.022949 440.740540,566.008301 420.452454,565.955811 
	C419.394714,565.953064 418.338409,565.386536 417.146118,564.720459 
z"/>
<path fill="#020202" opacity="1.000000" stroke="none" 
	d="
M415.683350,450.117188 
	C416.053558,468.387512 416.019684,486.726898 415.913879,505.529663 
	C415.229034,504.828552 414.090729,503.667786 414.082489,502.499084 
	C413.966461,486.043335 413.982361,469.586426 414.059235,453.130188 
	C414.063812,452.147003 414.854431,451.167480 415.683350,450.117188 
z"/>
<path fill="#020202" opacity="1.000000" stroke="none" 
	d="
M306.889526,542.469482 
	C292.090149,542.904907 277.186951,542.972168 262.283844,542.958191 
	C261.527679,542.957520 260.772156,542.257751 260.083008,541.445068 
	C274.017578,541.004700 287.885712,540.966125 301.753113,541.048889 
	C303.432617,541.058899 305.108276,541.723511 306.889526,542.469482 
z"/>
<path fill="#020202" opacity="1.000000" stroke="none" 
	d="
M415.457947,522.111938 
	C415.889709,535.360107 415.937866,548.713257 415.913879,562.529663 
	C415.229645,562.001221 414.095093,561.014709 414.085022,560.016907 
	C413.965118,548.108704 413.994659,536.198669 414.061005,524.289612 
	C414.064880,523.596802 414.721527,522.907654 415.457947,522.111938 
z"/>
<path fill="#020202" opacity="1.000000" stroke="none" 
	d="
M669.158936,564.803833 
	C675.031128,564.389160 681.051208,564.326233 687.530579,564.356445 
	C687.089844,564.964111 686.178711,565.938904 685.291382,565.917786 
	C679.960205,565.790649 674.634399,565.434753 669.158936,564.803833 
z"/>
<path fill="#020202" opacity="1.000000" stroke="none" 
	d="
M676.893311,449.469818 
	C673.982788,449.916199 670.972412,449.985535 667.518860,450.134979 
	C669.881714,446.089844 673.377686,447.938019 676.893311,449.469818 
z"/>
<path fill="#020202" opacity="1.000000" stroke="none" 
	d="
M666.523315,518.065918 
	C667.029724,519.527710 667.098816,521.053406 667.167908,522.579041 
	C666.948364,522.634155 666.728882,522.689270 666.509338,522.744385 
	C665.950256,521.661743 665.391113,520.579163 664.676270,519.206360 
	C665.042419,518.654114 665.564270,518.391968 666.523315,518.065918 
z"/>
<path fill="#020202" opacity="1.000000" stroke="none" 
	d="
M286.074188,471.486755 
	C287.072693,471.108978 288.138336,471.061096 289.598450,471.086853 
	C288.709045,471.379242 287.425171,471.597961 286.074188,471.486755 
z"/>
<path fill="#020202" opacity="1.000000" stroke="none" 
	d="
M260.545013,472.979614 
	C260.927826,472.331879 261.706177,471.670349 262.816895,471.083984 
	C262.413025,471.761383 261.676788,472.363586 260.545013,472.979614 
z"/>
<path fill="#020202" opacity="1.000000" stroke="none" 
	d="
M664.353516,518.066162 
	C663.783752,517.764282 663.402161,517.158630 662.985840,516.284302 
	C663.481262,516.597961 664.011475,517.180115 664.353516,518.066162 
z"/>
<path fill="#020202" opacity="1.000000" stroke="none" 
	d="
M260.326996,517.893066 
	C260.245178,517.679260 260.345520,517.373474 260.715057,517.108887 
	C260.894897,517.417480 260.736542,517.634460 260.326996,517.893066 
z"/>
<path fill="#020202" opacity="1.000000" stroke="none" 
	d="
M260.905396,495.758484 
	C260.683105,495.837769 260.370911,495.716888 260.100464,495.305695 
	C260.427643,495.120728 260.652100,495.301727 260.905396,495.758484 
z"/>
<path fill="#0B0B0B" opacity="1.000000" stroke="none" 
	d="
M527.376953,502.916779 
	C526.380493,502.423126 525.393066,501.920471 525.388611,501.409180 
	C525.298340,491.124512 525.321106,480.838837 525.321106,469.748413 
	C532.760193,470.115387 539.958984,469.727570 546.851868,470.998474 
	C555.476685,472.588745 560.516907,480.406097 559.514526,488.542450 
	C558.441467,497.252075 552.541626,502.580658 543.333679,502.890259 
	C538.176025,503.063629 533.007446,502.910004 527.376953,502.916779 
z"/>
<path fill="#0B0B0B" opacity="1.000000" stroke="none" 
	d="
M760.936829,517.217773 
	C761.375488,518.872986 761.744324,520.116760 762.216858,521.710083 
	C754.055664,521.710083 746.208557,521.710083 738.247681,521.710083 
	C742.214600,508.733978 746.143494,495.882141 750.289001,482.321594 
	C753.967590,494.313934 757.417297,505.560150 760.936829,517.217773 
z"/>
</svg>